<?xml version="1.0" encoding="utf-8"?>
<!-- Generator: Adobe Illustrator 23.0.2, SVG Export Plug-In . SVG Version: 6.00 Build 0)  -->
<svg version="1.1" id="Livello_1" xmlns="http://www.w3.org/2000/svg" xmlns:xlink="http://www.w3.org/1999/xlink" x="0px" y="0px"
	 viewBox="0 0 498.3 496.2" style="enable-background:new 0 0 498.3 496.2;" xml:space="preserve">
<style type="text/css">
	.st0{fill:#FFFFFF;}
</style>
<title>Risorsa 2</title>
<g>
	<g id="Livello_1-2">
		<path class="st0" d="M356.5,348.1l-60.6,104.9H130.2c9-15.6,17.8-30.8,26.6-46.1c31.7-54.9,63.4-109.8,95.1-164.7
			c19.5-34.4,63.2-46.4,97.6-26.9c0.2,0.1,0.4,0.2,0.6,0.3c38.7,22.2,77.3,44.5,115.8,66.9c24.8,14.4,36.9,41.7,30.8,69.1
			c-6.2,27-29.1,46.8-56.7,49c-27.2,2.3-52.5-13.4-63.5-39.2c-0.6-1.3-1.5-2.4-2.7-3.2C368.2,354.8,362.5,351.6,356.5,348.1z
			 M358.6,344.4c6.3,3.6,12.4,7.1,18.5,10.7c1.3,0.8,2.3,2,2.9,3.4c10.6,26.8,36.8,41.8,65.3,37.1c12.1-2,23.3-7.8,31.8-16.7
			l-51.1-5.6c0.9-4.3,1.5-7.5,2.1-10.7c9.8,1.3,19.2,2.8,28.7,3.7s19.2,1.2,28.5,1.8c16.1-23.7,9.9-59.8-14.6-76.9
			c-19.2-13.4-40.2-24.1-60.6-36.2L358.6,344.4z M388.2,258.7c-3.8-13.8-15.9-21.7-29.3-19.6c-12.7,2-22.3,13.9-21.5,26.9
			c0.7,12.8,11,23.6,23.3,24.3c14.2,0.9,25.6-8,27.9-21.6c-6,7.2-12.6,8.5-18,3.6c-4.6-4.2-4.9-11.3-0.7-15.9
			c0.1-0.1,0.2-0.2,0.3-0.3C375.1,251.1,382,251.9,388.2,258.7z"/>
		<path class="st0" d="M0.1,463h21.1c1.4,9.3,7.4,11.5,15.9,11.5c141.3-0.1,282.6-0.2,423.9-0.1c8.9,0,13.3-4.5,13.4-13.5
			c0-19.4,0-38.7,0-57.2c7.5-6.6,14.5-12.9,21.6-19.1c0,9.4,0,19.2,0,28.9c0,17.3,0.5,34.6-0.3,51.8c-0.9,17.9-15.2,30.8-33,30.8
			c-143.1,0.1-286.1,0.1-429.2,0C14.7,496.1-1.2,480.3,0.1,463z"/>
		<path class="st0" d="M495.8,290.5l-21.4-19.1v-235c0-10.9-3.9-14.8-14.9-14.8H221.2V0h241c18.8,0,33.6,14,33.7,32.8
			c0.1,85.4,0.2,170.8,0.1,256.2C495.9,289.5,495.9,290,495.8,290.5z"/>
		<path class="st0" d="M173.1,219.3c-66.2-3.2-115.2-33-144.6-93.1c-1.1-2.3,0.1-5.8,0.3-8.7c2.9,0.2,6.5-0.6,8.7,0.7
			c51.4,29.4,102.6,59,153.8,88.8c2,1.2,4.3,4.9,3.8,6.6c-0.6,2.1-4,4.2-6.4,4.7C183.5,219.1,178.3,219,173.1,219.3z"/>
		<path class="st0" d="M232.7,169.1c-0.6,0.7-1.8,3.2-3,3.2c-2.2,0.1-4.4-0.8-6-2.4c-23-27.1-45.9-54.3-68.6-81.6
			c-7.4-8.8-14.8-17.4-21.9-26.3c-1.1-1.3-1.6-4.2-0.8-5.5s3.6-2.5,5.1-2.1C190.1,67,229.2,113.4,232.7,169.1z"/>
		<path class="st0" d="M123.1,434.4l-17.7-10.2c3.4-5.9,6.7-11.6,10.2-17.7l17.7,10.2L123.1,434.4z"/>
		<path class="st0" d="M204,294.3l-17.7-10.2l10.2-17.7l17.7,10.2L204,294.3z"/>
		<path class="st0" d="M194,311.6l-10.2,17.7l-17.7-10.2c3.4-5.9,6.7-11.6,10.2-17.7L194,311.6z"/>
		<path class="st0" d="M163.5,364.4l-17.7-10.2c3.4-5.9,6.7-11.7,10.2-17.7l17.7,10.2L163.5,364.4z"/>
		<path class="st0" d="M227.7,213.2l15.3-16.6l13.6,15.4l-12.4,13.5L227.7,213.2z"/>
		<path class="st0" d="M224.2,259.3l-17.7-10.2l10.2-17.7l17.7,10.2L224.2,259.3z"/>
		<path class="st0" d="M135.8,371.5l17.7,10.2c-3.4,5.9-6.7,11.6-10.2,17.7l-17.6-10.2C129,383.3,132.3,377.5,135.8,371.5z"/>
		<path class="st0" d="M281.7,174.7c2.2,7,4.2,13.3,6.2,19.6l-16.8,7.3L261,183.8L281.7,174.7z"/>
		<path class="st0" d="M323.8,190.7h-18.3c-0.6-6.4-1.3-13-2-20H326C325.2,177.6,324.5,184.1,323.8,190.7z"/>
		<path class="st0" d="M347.7,175l20.6,9.2L358.1,202l-16.7-7.5L347.7,175z"/>
		<path class="st0" d="M463,335.1c-0.1-6.1,4.8-11.1,11-11.2c0,0,0,0,0,0c6.2,0,11.2,5,11.2,11.2c0,6.2-5,11.2-11.2,11.2
			c0,0,0,0,0,0C467.9,346.3,463,341.3,463,335.1C463,335.2,463,335.1,463,335.1z"/>
	</g>
</g>
</svg>
