<svg xmlns="http://www.w3.org/2000/svg" viewBox="0 0 498.28 496.16"><title>Risorsa 2</title><g id="Livello_2" data-name="Livello 2"><g id="Livello_1-2" data-name="Livello 1"><path d="M380.83,368.41l-60.6,104.94H154.54c9-15.56,17.76-30.83,26.57-46.08q47.55-82.35,95.11-164.69A71.62,71.62,0,0,1,374.45,236q58,33.32,115.83,66.88c24.79,14.36,36.9,41.72,30.76,69.09a63.31,63.31,0,0,1-56.67,49c-27.16,2.31-52.54-13.4-63.54-39.23a7.23,7.23,0,0,0-2.66-3.17C392.58,375.1,386.87,371.9,380.83,368.41Zm2.14-3.69c6.29,3.63,12.44,7.09,18.46,10.74a7.41,7.41,0,0,1,2.88,3.36c10.65,26.75,36.82,41.79,65.27,37.08a56.41,56.41,0,0,0,31.78-16.74l-51.09-5.63c.85-4.32,1.49-7.53,2.11-10.69,9.81,1.29,19.25,2.8,28.74,3.7s19.24,1.22,28.49,1.77c16.1-23.69,9.93-59.8-14.6-76.9-19.18-13.37-40.17-24.14-60.58-36.21ZM412.56,279c-3.8-13.77-15.91-21.67-29.33-19.6-12.72,2-22.28,13.9-21.54,26.89.73,12.82,11,23.57,23.34,24.33,14.21.88,25.6-7.95,27.85-21.59-6,7.19-12.56,8.52-18,3.62a11.25,11.25,0,0,1-.46-16.17C399.49,271.35,406.38,272.19,412.56,279Z" transform="translate(-24.34 -20.29)"/><path d="M24.41,483.29H45.53c1.43,9.3,7.42,11.5,15.93,11.49q211.93-.19,423.88-.09,13.34,0,13.37-13.47c0-19.35,0-38.7,0-57.19,7.49-6.64,14.49-12.87,21.55-19.14,0,9.43,0,19.18,0,28.93,0,17.27.51,34.56-.33,51.79-.86,17.87-15.19,30.79-33,30.79q-214.59.09-429.19,0C39,516.4,23.13,500.56,24.41,483.29Z" transform="translate(-24.34 -20.29)"/><path d="M520.15,310.76l-21.44-19.07V56.7c0-10.86-3.93-14.76-14.87-14.76H245.56V20.29h241c18.83,0,33.62,14,33.65,32.85q.22,128.1.06,256.22A13.18,13.18,0,0,1,520.15,310.76Z" transform="translate(-24.34 -20.29)"/><path d="M197.42,239.55c-66.17-3.25-115.19-33-144.62-93.12-1.13-2.32.12-5.8.26-8.74,2.94.17,6.45-.65,8.74.66q77.07,44.11,153.81,88.81c2,1.17,4.29,4.91,3.76,6.63-.64,2.08-4,4.21-6.43,4.67C207.87,239.4,202.6,239.25,197.42,239.55Z" transform="translate(-24.34 -20.29)"/><path d="M257.06,189.39c-.62.72-1.77,3.18-3,3.22a8.29,8.29,0,0,1-6-2.36q-34.47-40.67-68.64-81.6c-7.35-8.76-14.8-17.43-21.95-26.34-1.06-1.32-1.57-4.19-.84-5.51s3.57-2.49,5.1-2.12C214.46,87.31,253.49,133.72,257.06,189.39Z" transform="translate(-24.34 -20.29)"/><path d="M147.44,454.69l-17.7-10.21c3.39-5.88,6.69-11.61,10.2-17.68L157.62,437Z" transform="translate(-24.34 -20.29)"/><path d="M228.3,314.58l-17.68-10.2,10.2-17.68,17.7,10.19Z" transform="translate(-24.34 -20.29)"/><path d="M218.3,331.93l-10.22,17.68L190.41,339.4c3.41-5.93,6.71-11.65,10.2-17.69Z" transform="translate(-24.34 -20.29)"/><path d="M187.87,384.64l-17.69-10.22c3.43-5.94,6.74-11.66,10.2-17.67l17.69,10.19Z" transform="translate(-24.34 -20.29)"/><path d="M252,233.46l15.28-16.64,13.58,15.39-12.41,13.48Z" transform="translate(-24.34 -20.29)"/><path d="M248.53,279.56l-17.68-10.2,10.2-17.7,17.69,10.22Z" transform="translate(-24.34 -20.29)"/><path d="M160.16,391.77,177.86,402c-3.39,5.87-6.73,11.65-10.21,17.69L150,409.46C153.36,403.55,156.66,397.83,160.16,391.77Z" transform="translate(-24.34 -20.29)"/><path d="M306.06,195c2.21,7,4.19,13.27,6.18,19.55l-16.79,7.33-10.06-17.81Z" transform="translate(-24.34 -20.29)"/><path d="M348.15,211H329.87c-.64-6.41-1.29-13-2-20h22.43C349.57,197.87,348.86,204.42,348.15,211Z" transform="translate(-24.34 -20.29)"/><path d="M372.08,195.33l20.6,9.21-10.23,17.75-16.73-7.49Z" transform="translate(-24.34 -20.29)"/><path d="M487.37,355.43a11.08,11.08,0,0,1,11-11.2,11.18,11.18,0,1,1,0,22.36A11.07,11.07,0,0,1,487.37,355.43Z" transform="translate(-24.34 -20.29)"/></g></g></svg>