<?xml version="1.0" encoding="utf-8"?>
<!-- Generator: Adobe Illustrator 23.0.2, SVG Export Plug-In . SVG Version: 6.00 Build 0)  -->
<svg version="1.1" id="Livello_1" xmlns="http://www.w3.org/2000/svg" xmlns:xlink="http://www.w3.org/1999/xlink" x="0px" y="0px"
	 viewBox="0 0 674.3 672.3" style="enable-background:new 0 0 674.3 672.3;" xml:space="preserve">
<style type="text/css">
	.st0{fill:#FFFFFF;}
</style>
<title>Risorsa 1</title>
<g>
	<g id="Livello_1-2">
		<path class="st0" d="M174.7,610.3c2.8-5.2,4.3-8.2,6-11.1c52.7-88.8,105.4-177.7,158.1-266.5c32.6-54.8,88.2-68.7,143.1-36.1
			c49.7,29.5,99.6,58.6,149,88.5c44.1,26.6,55.5,83.7,25.3,124c-30.5,40.8-87.6,46.5-126.1,12.2c-6.4-5.7-13.1-12.7-16-20.4
			c-5.9-15.6-19-21.2-32.7-28.9l-82.1,138.3H174.7z M547.7,344.7c-24.8-14.7-48.2-28.6-71.7-42.5c-49.5-29.2-100.7-16.1-129.9,33.1
			c-44,74.1-88,148.1-131.9,222.2c-8.5,14.3-16.9,28.6-26.6,45.1h207.3L547.7,344.7z M575.3,506.1l70.5,8.2l9.5-12.7l-77.2-8.3
			C577.2,496.9,576.5,500.2,575.3,506.1z M639.6,470.3c7.8,0.3,15-6.5,15.2-14.2s-6.7-14.8-14.5-14.9c-8,0.2-14.4,6.8-14.2,14.9
			C626.2,463.6,632.1,469.8,639.6,470.3L639.6,470.3z"/>
		<path class="st0" d="M0.1,620.8h27.3c2.7,12.9,11.5,15.5,23.4,15.7c187.1,1.9,374.1,4,561.1,6.3c23.6,0.3,26.3-2.4,26.4-26.5
			c0.1-23.1,0-46.2,0-67.6l29.4-24.9c0.4,2.6,0.7,5.3,0.8,8c-0.2,31.5-0.4,63-0.9,94.6c-0.4,27.6-19.2,46.2-46.5,45.9
			c-192.3-2.2-384.6-4.4-576.9-6.7C17.8,665.3-1.9,645.5,0.1,620.8z"/>
		<path class="st0" d="M305,29.4V0c4.6,0,8.6,0,12.7,0c101.9,1.2,203.8,2.5,305.7,3.7c34.2,0.4,51.2,18,50.9,52.5
			c-1.3,110.3-2.6,220.7-3.9,331c0,2.4,0,4.8,0,9l-28.9-25.8c0-13.3-0.1-27,0-40.6c1.1-91.4,2.2-182.8,3.3-274.2
			c0.2-17.5-4.6-22.2-22.4-22.5l-304.7-3.7C313.7,29.4,309.6,29.4,305,29.4z"/>
		<path class="st0" d="M236.3,304c-92-5.5-160.1-47.4-200.7-131.2c-2.5-5.1-3.7-12.5-2.1-17.7c3.3-10.8,14.6-13.2,26.1-6.4
			c42.2,24.9,84.4,49.8,126.5,74.9c26.2,15.6,52.3,31.3,78.6,46.6c7.9,4.6,12.1,10.5,10.3,19.7c-1.9,9.5-9,12.7-17.8,13.1
			C250.2,303.3,243.3,303.7,236.3,304z M252,283.8L53.1,165.9C88.2,248.5,181.5,293.2,252,283.8L252,283.8z"/>
		<path class="st0" d="M325.9,224.1c0.8,6.8-0.8,13.9-9.1,17c-8.5,3.1-14.5-0.8-19.9-7.4c-39-47.7-78.1-95.4-117.3-143
			c-5.3-6.5-8.3-13.3-3-21s12.4-7.4,20.6-5.1C268.9,85,324.2,152.8,325.9,224.1z M199.1,85.5l107.2,130.6
			C303.8,161.4,251.4,97.4,199.1,85.5z"/>
		<path class="st0" d="M472.2,238l27.9,12.8l-14,24.1l-22.7-10.4C466.3,255.9,469,247.7,472.2,238z"/>
		<path class="st0" d="M349,286.3l-17,18.4l-22.1-16.8l20.7-22.5C337.1,272.7,342.9,279.4,349,286.3z"/>
		<path class="st0" d="M304.5,350l-23.9-14.3l14.2-23.8l24,14.2L304.5,350z"/>
		<path class="st0" d="M355,248.4l28.3-11.9c2.9,9.3,5.5,17.6,8.3,26.5l-22.8,9.9L355,248.4z"/>
		<path class="st0" d="M291.1,372.7c-5.2,8.7-9.5,16.1-14.3,24.1c-7.9-4.7-15.3-9.1-23.7-14.1l13.6-23.9L291.1,372.7z"/>
		<path class="st0" d="M165.7,584.3l-23.8-14.2l14-24.2c8,4.8,15.3,9.1,23.8,14.2C175,568.2,170.7,575.8,165.7,584.3z"/>
		<path class="st0" d="M239.3,405.6l23.9,14.2c-4.8,8.1-9.1,15.5-14.1,24l-24-14.2L239.3,405.6z"/>
		<path class="st0" d="M169.3,523.1l14.6-23.8l23.6,14.1l-13.9,23.8L169.3,523.1z"/>
		<path class="st0" d="M221.1,490.5l-23.8-14.2l14.2-24l23.8,14.2L221.1,490.5z"/>
		<path class="st0" d="M440.1,258.5h-24.8c-0.8-8.7-1.5-17.1-2.3-26.5h30.2C442.1,241.2,441.1,249.6,440.1,258.5z"/>
		<path class="st0" d="M525.2,351.4c-9.5-8.5-17.6-9.4-23.7-2.8s-5.7,13.3-0.2,19.8c5.7,6.7,13.8,6,23-1.5
			c0,14.1-14.4,26.8-31.4,27.6c-17.5,0.9-33.9-13.2-36.3-31.2s10.2-35,29-39C503,320.6,523.4,333.8,525.2,351.4z"/>
	</g>
</g>
</svg>
