<svg xmlns="http://www.w3.org/2000/svg" viewBox="0 0 674.3 672.26"><title>Risorsa 1</title><g id="Livello_2" data-name="Livello 2"><g id="Livello_1-2" data-name="Livello 1"><path d="M213,649.22c2.77-5.17,4.27-8.21,6-11.12q79-133.26,158.06-266.48c32.61-54.84,88.24-68.71,143.1-36.09,49.66,29.53,99.57,58.62,149,88.48,44.13,26.64,55.47,83.71,25.34,124C664,588.8,606.92,594.53,568.38,560.24c-6.42-5.71-13.11-12.67-16-20.43-5.87-15.62-19.05-21.22-32.67-28.9L437.61,649.22ZM586,383.62c-24.79-14.68-48.23-28.61-71.73-42.45C464.82,312,413.61,325.08,384.41,374.26q-66,111.11-131.88,222.21c-8.48,14.3-16.89,28.63-26.61,45.13H433.2ZM613.59,545l70.49,8.18,9.48-12.74-77.21-8.32C615.58,535.74,614.87,539.08,613.59,545Zm64.35-35.82c7.75.27,15-6.48,15.23-14.2s-6.74-14.82-14.52-14.9a14.57,14.57,0,0,0-.71,29.1Z" transform="translate(-38.33 -38.88)"/><path d="M38.48,659.65H65.75c2.74,12.89,11.52,15.54,23.39,15.66q280.58,2.88,561.14,6.33c23.59.27,26.29-2.36,26.42-26.46.13-23.08,0-46.16,0-67.63l29.37-24.9a73.41,73.41,0,0,1,.81,8c-.23,31.53-.44,63-.87,94.58-.37,27.56-19.21,46.23-46.48,45.92q-288.45-3.25-576.9-6.68C56.1,704.14,36.39,684.39,38.48,659.65Z" transform="translate(-38.33 -38.88)"/><path d="M343.29,68.32V38.9c4.59,0,8.65,0,12.72,0q152.87,1.83,305.74,3.7C696,43,713,60.58,712.62,95.06q-1.89,165.48-3.89,331c0,2.42,0,4.84,0,9L679.82,409.3c0-13.32-.14-27,0-40.61q1.62-137.12,3.33-274.22C683.38,77,678.59,72.22,660.8,72L356.12,68.33C352,68.28,347.92,68.32,343.29,68.32Z" transform="translate(-38.33 -38.88)"/><path d="M274.59,342.86c-92-5.49-160.13-47.36-200.71-131.15-2.5-5.15-3.67-12.47-2.06-17.74,3.3-10.81,14.64-13.18,26.11-6.42q63.33,37.3,126.51,74.86C250.64,278,276.73,293.7,303.07,309c7.93,4.61,12.14,10.54,10.28,19.69-1.94,9.51-9,12.7-17.8,13.15Q285.08,342.37,274.59,342.86Zm15.72-20.16L91.4,204.81C126.52,287.34,219.83,332.08,290.31,322.7Z" transform="translate(-38.33 -38.88)"/><path d="M364.24,263c.83,6.84-.75,13.88-9.07,17-8.47,3.14-14.49-.75-19.93-7.41q-58.47-71.62-117.31-143c-5.31-6.47-8.28-13.29-3-21s12.39-7.4,20.58-5.07C307.27,123.87,362.55,191.73,364.24,263ZM237.38,124.35,344.57,254.94C342.17,200.29,289.69,136.3,237.38,124.35Z" transform="translate(-38.33 -38.88)"/><path d="M510.52,276.86l27.93,12.78-14,24.12-22.69-10.43C504.6,294.78,507.29,286.63,510.52,276.86Z" transform="translate(-38.33 -38.88)"/><path d="M387.3,325.15l-17,18.42-22.11-16.83,20.68-22.53C375.39,311.62,381.21,318.24,387.3,325.15Z" transform="translate(-38.33 -38.88)"/><path d="M342.86,388.84,319,374.5l14.25-23.83,24,14.18Z" transform="translate(-38.33 -38.88)"/><path d="M393.37,287.31l28.28-11.9c2.91,9.32,5.52,17.65,8.27,26.46l-22.85,9.88Z" transform="translate(-38.33 -38.88)"/><path d="M329.42,411.58c-5.15,8.68-9.55,16.07-14.33,24.1-7.92-4.7-15.27-9.07-23.66-14.07l13.63-23.92Z" transform="translate(-38.33 -38.88)"/><path d="M204,623.22,180.19,609l14-24.17c8,4.76,15.33,9.11,23.84,14.15C213.33,607.11,209,614.71,204,623.22Z" transform="translate(-38.33 -38.88)"/><path d="M277.6,444.44l23.9,14.18c-4.78,8.13-9.14,15.52-14.11,24l-24-14.19Z" transform="translate(-38.33 -38.88)"/><path d="M207.67,562l14.56-23.83,23.6,14.14-13.9,23.81Z" transform="translate(-38.33 -38.88)"/><path d="M259.46,529.37l-23.78-14.15,14.2-24,23.78,14.18Z" transform="translate(-38.33 -38.88)"/><path d="M478.42,297.4H453.59c-.76-8.67-1.5-17.1-2.32-26.53h30.25C480.44,280.07,479.46,288.5,478.42,297.4Z" transform="translate(-38.33 -38.88)"/><path d="M563.5,390.29c-9.51-8.53-17.57-9.36-23.68-2.82s-5.7,13.31-.19,19.75c5.72,6.67,13.81,5.95,23-1.54.05,14.12-14.37,26.81-31.4,27.65-17.52.87-33.91-13.21-36.35-31.21s10.21-35,29-38.95C541.33,359.53,561.7,372.65,563.5,390.29Z" transform="translate(-38.33 -38.88)"/></g></g></svg>